# Blender 5.1.1
# www.blender.org
mtllib COBWEB_FLOORHOLE.mtl
o COBWEB_FLOORHOLE
v -3.134753 -0.000001 -0.839946
v -1.553630 0.272504 -0.416296
v -2.294806 -0.000001 -2.294807
v -1.137334 0.272504 -1.137334
v -3.134753 -0.000000 0.839946
v -1.553630 0.272505 0.416296
v -3.134753 -0.000001 -0.839946
v -1.553630 0.272504 -0.416296
v -2.294807 0.000000 2.294807
v -1.137334 0.272505 1.137334
v -3.134753 -0.000000 0.839946
v -1.553630 0.272505 0.416296
v -0.839946 0.000000 3.134753
v -0.416296 0.272505 1.553630
v -2.294807 0.000000 2.294807
v -1.137334 0.272505 1.137334
v 0.839946 0.000001 3.134753
v 0.416296 0.272505 1.553630
v -0.839946 0.000000 3.134753
v -0.416296 0.272505 1.553630
v 2.294806 0.000001 2.294807
v 1.137334 0.272505 1.137334
v 0.839946 0.000001 3.134753
v 0.416296 0.272505 1.553630
v 3.134753 0.000001 0.839946
v 1.553630 0.272505 0.416296
v 2.294806 0.000001 2.294807
v 1.137334 0.272505 1.137334
v 3.134753 0.000000 -0.839946
v 1.553630 0.272505 -0.416296
v 3.134753 0.000001 0.839946
v 1.553630 0.272505 0.416296
v 2.294807 -0.000000 -2.294807
v 1.137334 0.272505 -1.137334
v 3.134753 0.000000 -0.839946
v 1.553630 0.272505 -0.416296
v 0.839946 -0.000000 -3.134753
v 0.416296 0.272505 -1.553630
v 2.294807 -0.000000 -2.294807
v 1.137334 0.272505 -1.137334
v -0.839946 -0.000001 -3.134753
v -0.416296 0.272504 -1.553630
v 0.839946 -0.000000 -3.134753
v 0.416296 0.272505 -1.553630
v -2.294806 -0.000001 -2.294807
v -1.137334 0.272504 -1.137334
v -0.839946 -0.000001 -3.134753
v -0.416296 0.272504 -1.553630
v 1.553630 0.272505 0.416296
v -0.000000 0.272505 -0.000000
v 1.137334 0.272505 1.137334
v 0.416296 0.272505 1.553630
v -0.416296 0.272505 1.553630
v -1.137334 0.272505 1.137334
v -1.553630 0.272505 0.416296
v -1.553630 0.272504 -0.416296
v -1.137334 0.272504 -1.137334
v -0.416296 0.272504 -1.553630
v 0.416296 0.272505 -1.553630
v 1.137334 0.272505 -1.137334
v 1.553630 0.272505 -0.416296
vn 0.1471 -0.9855 0.0849
vn 0.1698 -0.9855 -0.0000
vn 0.1471 -0.9855 -0.0849
vn 0.0849 -0.9855 -0.1471
vn -0.0000 -0.9855 -0.1698
vn -0.0849 -0.9855 -0.1471
vn -0.1471 -0.9855 -0.0849
vn -0.1698 -0.9855 -0.0000
vn -0.1471 -0.9855 0.0849
vn -0.0849 -0.9855 0.1471
vn -0.0000 -0.9855 0.1698
vn 0.0849 -0.9855 0.1471
vn -0.0000 -1.0000 -0.0000
vt 0.370000 1.000000
vt 0.140000 0.860000
vt 0.430000 0.750000
vt 0.320000 0.680000
vt 0.630000 1.000000
vt 0.570000 0.750000
vt 0.860000 0.860000
vt 0.680000 0.680000
vt 1.000000 0.630000
vt 0.750000 0.570000
vt 1.000000 0.370000
vt 0.750000 0.430000
vt 0.860000 0.140000
vt 0.680000 0.320000
vt 0.630000 0.000000
vt 0.570000 0.250000
vt 0.370000 0.000000
vt 0.430000 0.250000
vt 0.140000 0.140000
vt 0.320000 0.320000
vt 0.000000 0.370000
vt 0.250000 0.430000
vt 0.000000 0.630000
vt 0.250000 0.570000
vt 0.500000 0.500000
s 1
usemtl ydan_spyuka_mod_0.001
f 1/1/1 3/2/1 2/3/1
f 2/3/1 3/2/1 4/4/1
f 5/5/2 7/1/2 6/6/2
f 6/6/2 7/1/2 8/3/2
f 9/7/3 11/5/3 10/8/3
f 10/8/3 11/5/3 12/6/3
f 13/9/4 15/7/4 14/10/4
f 14/10/4 15/7/4 16/8/4
f 17/11/5 19/9/5 18/12/5
f 18/12/5 19/9/5 20/10/5
f 21/13/6 23/11/6 22/14/6
f 22/14/6 23/11/6 24/12/6
f 25/15/7 27/13/7 26/16/7
f 26/16/7 27/13/7 28/14/7
f 29/17/8 31/15/8 30/18/8
f 30/18/8 31/15/8 32/16/8
f 33/19/9 35/17/9 34/20/9
f 34/20/9 35/17/9 36/18/9
f 37/21/10 39/19/10 38/22/10
f 38/22/10 39/19/10 40/20/10
f 41/23/11 43/21/11 42/24/11
f 42/24/11 43/21/11 44/22/11
f 45/2/12 47/23/12 46/4/12
f 46/4/12 47/23/12 48/24/12
f 49/16/13 51/14/13 50/25/13
f 51/14/13 52/12/13 50/25/13
f 52/12/13 53/10/13 50/25/13
f 53/10/13 54/8/13 50/25/13
f 54/8/13 55/6/13 50/25/13
f 55/6/13 56/3/13 50/25/13
f 56/3/13 57/4/13 50/25/13
f 57/4/13 58/24/13 50/25/13
f 58/24/13 59/22/13 50/25/13
f 59/22/13 60/20/13 50/25/13
f 60/20/13 61/18/13 50/25/13
f 61/18/13 49/16/13 50/25/13
