# Blender 5.1.1
# www.blender.org
mtllib GHOST_LADDER.mtl
o GHOST_LADDER.001
v 0.314144 -1.722794 -0.284897
v 0.276828 -1.728565 -0.320366
v 0.012483 -1.725042 0.001450
v -0.021920 -1.730789 -0.036781
v -0.289156 -1.727287 0.287785
v -0.320666 -1.733013 0.246799
v 0.282029 -1.723034 -0.254412
v 0.283033 -1.316216 -0.250164
v 0.246688 -1.722557 -0.291641
v 0.247688 -1.315740 -0.287390
v 0.253313 0.970745 -0.263493
v 0.288652 0.970270 -0.226267
v 0.254265 1.357178 -0.259457
v 0.289607 1.356703 -0.222227
v 0.255288 1.772286 -0.255121
v 0.290632 1.771811 -0.217894
v 0.276828 -1.728565 -0.320366
v 0.277778 -1.342417 -0.316332
v -0.021920 -1.730789 -0.036781
v -0.020969 -1.344641 -0.032749
v -0.320666 -1.733013 0.246799
v -0.319715 -1.346866 0.250834
v -0.313998 0.970022 0.275032
v -0.015252 0.972250 -0.008553
v -0.313046 1.356172 0.279066
v -0.014298 1.358397 -0.004517
v -0.312031 1.768062 0.283367
v -0.013285 1.770288 -0.000216
v 0.285465 1.772513 -0.283798
v 0.284446 1.360620 -0.288103
v 0.283492 0.974473 -0.292133
v -0.247240 1.352703 0.287373
v -0.281560 1.768290 0.254478
v -0.246217 1.767813 0.291708
v -0.282582 1.353179 0.250143
v -0.248191 0.966272 0.283335
v -0.283538 0.966747 0.246107
v -0.253835 -1.320213 0.259455
v -0.289176 -1.319737 0.222227
v -0.290180 -1.726555 0.217978
v -0.254835 -1.727033 0.255205
v 0.314144 -1.722794 -0.284897
v 0.012483 -1.725042 0.001450
v 0.313227 -1.342894 -0.278992
v 0.014481 -1.345118 0.004591
v 0.318942 0.973993 -0.254795
v 0.020197 0.971769 0.028788
v 0.319895 1.360143 -0.250761
v 0.021151 1.357918 0.032824
v 0.320910 1.772035 -0.246462
v 0.022166 1.769809 0.037125
v -0.276580 1.767585 0.320707
v -0.277596 1.355694 0.316406
v -0.278550 0.969543 0.312374
v -0.284265 -1.347342 0.288176
v -0.289156 -1.727287 0.287785
vn 0.0805 -0.9938 0.0770
vn 0.7253 0.0054 -0.6885
vn 0.7252 0.0054 -0.6885
vn 0.7253 0.0054 -0.6884
vn -0.6885 0.0093 -0.7252
vn -0.7252 -0.0054 0.6885
vn -0.7253 -0.0054 0.6885
vn 0.6885 -0.0096 0.7252
vn 0.6885 -0.0094 0.7252
vn 0.6885 -0.0093 0.7252
vt 0.000000 0.470000
vt 0.500000 0.470000
vt 0.000000 0.560000
vt 0.500000 0.560000
vt 1.000000 0.470000
vt 1.000000 0.560000
vt 0.870000 1.110000
vt 0.940000 1.110000
vt 0.870000 0.830000
vt 0.940000 0.830000
vt 0.940000 -2.170000
vt 0.870000 -2.170000
vt 0.940000 -2.690000
vt 0.870000 -2.690000
vt 0.940000 -3.140000
vt 0.870000 -3.140000
vt 0.000000 1.110000
vt 0.500000 1.110000
vt 0.000000 0.810000
vt 0.500000 0.810000
vt 1.000000 1.110000
vt 1.000000 0.810000
vt 1.000000 -2.170000
vt 0.500000 -2.170000
vt 1.000000 -2.690000
vt 0.500000 -2.690000
vt 1.000000 -3.130000
vt 0.500000 -3.130000
vt 0.000000 -3.130000
vt 0.000000 -2.690000
vt 0.000000 -2.170000
s 1
usemtl ydan_t_hasigo_m_0.001
f 1/1/1 3/2/1 2/3/1
f 3/2/1 4/4/1 2/3/1
f 3/2/1 5/5/1 4/4/1
f 5/5/1 6/6/1 4/4/1
f 7/7/2 9/8/2 8/9/3
f 9/8/2 10/10/3 8/9/3
f 10/10/3 11/11/4 8/9/3
f 11/11/4 12/12/4 8/9/3
f 11/11/4 13/13/4 12/12/4
f 13/13/4 14/14/4 12/12/4
f 13/13/4 15/15/3 14/14/4
f 15/15/3 16/16/3 14/14/4
f 17/17/5 19/18/5 18/19/5
f 19/18/5 20/20/5 18/19/5
f 19/18/5 21/21/5 20/20/5
f 21/21/5 22/22/5 20/20/5
f 22/22/5 23/23/5 20/20/5
f 23/23/5 24/24/5 20/20/5
f 23/23/5 25/25/5 24/24/5
f 25/25/5 26/26/5 24/24/5
f 25/25/5 27/27/5 26/26/5
f 27/27/5 28/28/5 26/26/5
f 28/28/5 29/29/5 26/26/5
f 29/29/5 30/30/5 26/26/5
f 26/26/5 30/30/5 24/24/5
f 30/30/5 31/31/5 24/24/5
f 24/24/5 31/31/5 20/20/5
f 31/31/5 18/19/5 20/20/5
f 32/14/6 34/16/7 33/15/7
f 35/13/6 32/14/6 33/15/7
f 36/12/6 32/14/6 35/13/6
f 37/11/6 36/12/6 35/13/6
f 38/9/7 36/12/6 37/11/6
f 39/10/7 38/9/7 37/11/6
f 38/9/7 39/10/7 40/8/6
f 41/7/6 38/9/7 40/8/6
f 42/17/8 44/19/9 43/18/8
f 44/19/9 45/20/9 43/18/8
f 45/20/9 44/19/9 46/31/10
f 47/24/10 45/20/9 46/31/10
f 47/24/10 46/31/10 48/30/10
f 49/26/10 47/24/10 48/30/10
f 49/26/10 48/30/10 50/29/10
f 51/28/10 49/26/10 50/29/10
f 49/26/10 51/28/10 52/27/10
f 53/25/10 49/26/10 52/27/10
f 47/24/10 49/26/10 53/25/10
f 54/23/10 47/24/10 53/25/10
f 45/20/9 47/24/10 54/23/10
f 55/22/9 45/20/9 54/23/10
f 45/20/9 55/22/9 56/21/8
f 43/18/8 45/20/9 56/21/8
