mtllib Deku Scrub (Forest Stage).mtl
o nodes_13__meshes[3]
v -572.648010 2688.972168 888.980103
v -905.339966 3078.024170 488.836029
v -943.059998 2642.319824 607.364014
v -535.424011 3111.088135 772.012024
v 572.648010 2688.972168 888.980103
v 943.059998 2642.319824 607.364014
v 905.339966 3078.024170 488.836029
v 535.424011 3111.088135 772.012024
vt 0.062487 0.062487
vt 0.937500 0.937500
vt 0.937500 0.062487
vt 0.062487 0.937500
vt 0.062487 0.062487
vt 0.937500 0.062487
vt 0.937500 0.937500
vt 0.062487 0.937500
vn -0.6052 0.2573 0.7534
vn -0.6013 0.2622 0.7548
vn 0.6052 0.2573 0.7534
vn 0.6013 0.2622 0.7548
usemtl material2
s off
f 1/1/1 2/2/1 3/3/1
f 1/1/2 4/4/2 2/2/2
f 5/5/3 6/6/3 7/7/3
f 5/5/4 7/7/4 8/8/4
o nodes_12__meshes[2]
v -52.368004 4075.619873 8.546240
v -0.003682 4100.853516 -996.468018
v -580.218018 3725.839355 -541.393860
v -403.352600 3428.076416 -1247.299072
v -0.005912 3287.844482 -1599.928101
v 403.343384 3428.076416 -1247.302002
v 580.214050 3725.839355 -541.398071
v 52.368004 4075.619873 8.546240
v -52.368004 4075.619873 8.546240
v -52.368004 4075.619873 8.546240
v -0.002668 4812.996094 134.939911
v -537.604675 4963.074219 -267.936493
v 52.368004 4075.619873 8.546240
v 537.595276 4963.078125 -267.940399
v -0.007122 5659.807617 -229.591675
v -964.151917 4387.427734 124.361794
v -1096.853027 3895.515381 -98.517090
v -52.368004 4075.619873 8.546240
v -798.867371 4839.081055 -181.284592
v -1612.845093 4579.782227 -543.884033
v 964.150269 4387.429688 124.361595
v 1096.852905 3895.517822 -98.516006
v 798.864502 4839.081055 -181.286011
v 1612.842896 4579.783203 -543.884033
vt 0.046881 0.429688
vt 0.031249 0.242192
vt 0.203127 0.273441
vt 0.140629 0.140629
vt 0.031249 0.015631
vt 0.140629 0.140629
vt 0.203127 0.273441
vt 0.046881 0.429688
vt 0.015631 0.429688
vt 0.046881 0.429688
vt 0.031249 0.226561
vt 0.234377 0.242192
vt 0.015631 0.429688
vt 0.234377 0.242192
vt 0.031249 0.015631
vt 0.031249 0.226561
vt 0.234377 0.242192
vt 0.015631 0.429688
vt 0.234377 0.242192
vt 0.031249 0.015631
vt 0.031249 0.226561
vt 0.234377 0.242192
vt 0.234377 0.242192
vt 0.031249 0.015631
vn -0.5469 0.8371 -0.0075
vn 0.0000 0.8983 -0.4393
vn -0.6377 0.7439 -0.2000
vn -0.5575 0.5620 -0.6110
vn 0.0000 0.5960 -0.8030
vn 0.5575 0.5620 -0.6110
vn 0.6377 0.7439 -0.2000
vn 0.2137 0.9768 0.0134
vn 0.0000 0.9997 0.0251
vn -0.2076 -0.1509 0.9665
vn 0.0000 0.0997 0.9950
vn -0.5581 0.1769 0.8107
vn 0.1001 -0.0928 0.9906
vn 0.5581 0.1769 0.8107
vn 0.0000 0.3954 0.9185
vn -0.2618 0.1578 0.9521
vn -0.4294 -0.2741 0.8605
vn 0.1388 0.0383 0.9896
vn -0.1471 0.5907 0.7934
vn -0.6484 0.2768 0.7091
vn 0.2618 0.1578 0.9521
vn 0.4294 -0.2740 0.8605
vn 0.1471 0.5907 0.7933
vn 0.6484 0.2768 0.7091
usemtl material0_001
s 1
f 9/9/5 10/10/6 11/11/7
f 10/10/6 12/12/8 11/11/7
f 10/10/6 13/13/9 12/12/8
f 10/10/6 14/14/10 13/13/9
f 10/10/6 15/15/11 14/14/10
f 16/16/12 15/15/11 10/10/6
f 10/10/6 17/17/13 16/16/12
f 18/18/14 19/19/15 20/20/16
f 19/19/15 18/18/14 21/21/17
f 21/21/17 22/22/18 19/19/15
f 19/19/15 22/22/18 23/23/19
f 19/19/15 23/23/19 20/20/16
f 24/24/20 25/25/21 26/26/22
f 27/27/23 24/24/20 26/26/22
f 27/27/23 28/28/24 24/24/20
f 24/24/20 28/28/24 25/25/21
f 29/29/25 21/21/17 30/30/26
f 31/31/27 21/21/17 29/29/25
f 31/31/27 29/29/25 32/32/28
f 29/29/25 30/30/26 32/32/28
o nodes_11__meshes[1]
v 505.732025 1824.459839 -416.688019
v 887.844055 1187.899902 -583.779968
v 0.000000 1299.475952 -984.952026
v 788.048035 1464.535889 445.556030
v 567.704041 1798.891968 341.755585
v 0.000000 1767.255981 606.448059
v 0.000000 958.883972 893.679871
v 989.344055 961.559937 507.720001
v 0.000000 -29.472116 1023.316040
v 1131.656006 489.459961 533.959961
v 1108.768066 399.461548 -666.979980
v 0.000000 756.816040 -1218.236084
v -887.844055 1187.899902 -583.779968
v -505.732025 1824.459839 -416.688019
v -788.048035 1464.535889 445.556030
v -567.704041 1798.891968 341.755585
v -989.344055 961.559937 507.720001
v -1131.656006 489.459961 533.959961
v -1108.768066 399.461548 -666.979980
v 0.000000 65.527992 -1399.976074
v 0.000000 1824.083984 -573.576050
vt 0.749990 0.367199
vt 0.843750 0.226574
vt 0.296872 0.281250
vt 0.296872 0.281250
vt 0.343737 0.367199
vt 0.749990 0.367199
vt 0.843750 0.226574
vt 0.218763 0.148436
vt 0.984375 0.007811
vt 0.140625 0.007811
vt 0.984375 0.007811
vt 0.218763 0.148436
vt 0.843750 0.226574
vt 0.749990 0.367199
vt 0.296872 0.281250
vt 0.343737 0.367199
vt 0.218763 0.148436
vt 0.140625 0.007811
vt 0.984375 0.007811
vt 0.140625 0.007811
vt 0.343737 0.367199
vn 0.6435 0.5803 -0.4990
vn 0.7766 0.4039 -0.4835
vn 0.0000 0.4714 -0.8819
vn 0.7254 0.4675 0.5051
vn 0.6832 0.5857 0.4361
vn 0.0000 0.3828 0.9238
vn 0.0000 0.2172 0.9761
vn 0.7838 0.3048 0.5411
vn 0.0000 0.1394 0.9902
vn 0.7765 0.2658 0.5712
vn 0.7994 0.2810 -0.5310
vn 0.0000 0.3026 -0.9531
vn -0.7766 0.4039 -0.4835
vn -0.6435 0.5803 -0.4990
vn -0.7254 0.4675 0.5051
vn -0.6832 0.5857 0.4361
vn -0.7838 0.3048 0.5411
vn -0.7765 0.2658 0.5712
vn -0.7994 0.2810 -0.5310
vn 0.0000 0.2542 -0.9671
vn 0.0000 0.6171 -0.7869
usemtl material0
s 1
f 33/33/29 34/34/30 35/35/31
f 33/33/29 36/36/32 34/34/30
f 33/33/29 37/37/33 36/36/32
f 36/36/32 37/37/33 38/38/34
f 36/36/32 38/38/34 39/39/35
f 39/39/35 40/40/36 36/36/32
f 41/41/37 40/40/36 39/39/35
f 41/41/37 42/42/38 40/40/36
f 43/43/39 40/40/36 42/42/38
f 43/43/39 34/34/30 40/40/36
f 34/34/30 43/43/39 44/44/40
f 34/34/30 44/44/40 35/35/31
f 45/45/41 35/35/31 44/44/40
f 46/46/42 35/35/31 45/45/41
f 46/46/42 45/45/41 47/47/43
f 46/46/42 47/47/43 48/48/44
f 47/47/43 38/38/34 48/48/44
f 47/47/43 39/39/35 38/38/34
f 39/39/35 47/47/43 49/49/45
f 41/41/37 39/39/35 49/49/45
f 41/41/37 49/49/45 50/50/46
f 51/51/47 50/50/46 49/49/45
f 51/51/47 49/49/45 45/45/41
f 45/45/41 44/44/40 51/51/47
f 44/44/40 52/52/48 51/51/47
f 44/44/40 43/43/39 52/52/48
f 33/33/29 35/35/31 53/53/49
f 46/46/42 53/53/49 35/35/31
f 40/40/36 34/34/30 36/36/32
f 49/49/45 47/47/43 45/45/41
o nodes_10__meshes[0]
v -970.440125 3.527975 473.884033
v -375.356384 468.739990 51.063198
v -1029.996216 632.412109 219.558014
v -87.003212 3.527900 162.367203
v -229.062408 285.853210 -72.164001
v -160.160812 3.527906 -346.399994
v -160.160812 3.527906 -346.399994
v -394.921631 480.459991 -141.463196
v -1095.404175 3.527986 -395.176392
v -1055.440063 618.904114 -125.567200
v -1311.568237 469.736145 72.348801
v -1399.156128 94.967781 92.016411
v -1055.440063 618.904114 -125.567200
v -394.921631 480.459991 -141.463196
v -1095.404175 3.527986 -395.176392
v -970.440125 3.527975 473.884033
v -1399.156128 94.967781 92.016411
v -87.003212 3.527900 162.367203
v -160.160812 3.527906 -346.399994
v 970.439941 3.527743 473.884033
v 1029.995972 632.411926 219.558014
v 375.356384 468.739960 51.063198
v 87.003227 3.527824 162.367203
v 229.062408 285.853149 -72.164001
v 160.160812 3.527817 -346.399994
v 160.160812 3.527817 -346.399994
v 394.921600 480.459961 -141.463196
v 1095.403931 3.527731 -395.176392
v 1055.439819 618.903931 -125.567200
v 1311.567993 469.735901 72.348801
v 1399.155884 94.967476 92.016411
v 1055.439819 618.903931 -125.567200
v 394.921600 480.459961 -141.463196
v 1095.403931 3.527731 -395.176392
v 1399.155884 94.967476 92.016411
v 970.439941 3.527743 473.884033
v 87.003227 3.527824 162.367203
v 160.160812 3.527817 -346.399994
v 0.000000 254.056778 -59.832397
v 375.489990 468.739960 51.063198
v 0.000000 958.883972 893.679871
v 229.196014 285.853149 -72.164001
v 395.055176 480.459961 -141.463196
v 0.000000 1299.475952 -984.952026
v -395.055145 480.459991 -141.463196
v -229.195984 285.853180 -72.164001
v -375.489960 468.739990 51.063198
v -989.424072 961.559937 507.720001
v -887.976013 1187.895874 -583.776001
v 887.976013 1187.895874 -583.776001
v 989.424072 961.559937 507.720001
v 281.616394 2197.884033 1033.324097
v 457.764008 2164.676025 1757.356201
v 0.000000 2050.732178 1010.219971
v 541.512024 2714.280029 1753.540039
v 303.992004 2666.540039 1095.956055
v -0.000057 3012.888184 1755.392090
v 0.000000 2810.544189 1162.612061
v -303.992401 2666.540039 1095.956055
v -541.512024 2714.280029 1753.540039
v -281.616394 2197.884033 1033.324097
v -457.764008 2164.676025 1757.356201
v 0.000000 1945.472046 1753.012207
v 457.764008 2164.676025 1757.356201
v 541.512024 2714.280029 1753.540039
v 0.000000 1945.472046 1753.012207
v -0.000057 3012.888184 1755.392090
v -541.512024 2714.280029 1753.540039
v -457.764008 2164.676025 1757.356201
v 0.000000 3140.024170 1006.639954
v 0.000000 2810.544189 1162.612061
v 303.992004 2666.540039 1095.956055
v 963.976074 3086.144043 382.440796
v 1121.939941 2534.188232 445.284027
v 703.728027 3086.144043 -661.592102
v 817.272034 2509.748047 -699.964050
v 0.000000 3086.144043 -1003.584045
v -0.000057 3480.699951 -747.996033
v 513.739990 3491.844238 -475.679993
v 690.608032 3518.164062 259.378387
v -303.992401 2666.540039 1095.956055
v -963.976074 3086.144043 382.440796
v -1121.939941 2534.188232 445.284027
v -703.728027 3086.144043 -661.592102
v -817.272034 2509.748047 -699.964050
v -513.739990 3491.844238 -475.679993
v -690.608032 3518.164062 259.378387
v -52.368004 4075.639893 8.546280
v 0.000000 3531.376221 679.476013
v 52.368004 4075.639893 8.546240
v -0.000057 3480.699951 -747.996033
v 513.739990 3491.844238 -475.679993
v 690.608032 3518.164062 259.378387
v 0.000000 3140.024170 1006.639954
v -690.608032 3518.164062 259.378387
v -52.368004 4075.639893 8.546280
v -513.739990 3491.844238 -475.679993
v 808.804016 1925.888062 413.056030
v 281.616394 2197.884033 1033.324097
v 613.116028 1924.619995 -514.624023
v 567.704041 1798.891968 341.755585
v -0.000040 1767.255981 606.448059
v 0.000000 2050.732178 1010.219971
v -281.616394 2197.884033 1033.324097
v -808.804016 1925.888062 413.056030
v -567.704041 1798.891968 341.755585
v -613.116028 1924.619995 -514.624023
v -505.732025 1824.459839 -416.688019
v 0.000000 1914.200073 -779.672058
v 0.000000 1824.083984 -573.576050
v 505.732025 1824.459839 -416.688019
v 0.000000 2500.056152 -1104.712036
vt 0.640636 0.382801
vt 0.875004 0.468736
vt 0.640636 0.468736
vt 0.953127 0.382801
vt 0.968751 0.445299
vt 0.984376 0.382801
vt 0.953127 0.382801
vt 0.875004 0.468736
vt 0.640636 0.382801
vt 0.640636 0.468736
vt 0.578138 0.453111
vt 0.546889 0.398426
vt 0.640636 0.492203
vt 0.875004 0.492203
vt 0.953127 0.507828
vt 0.953127 0.554701
vt 0.984376 0.531264
vt 0.640636 0.554701
vt 0.640636 0.507828
vt 0.640636 0.382801
vt 0.640636 0.468736
vt 0.875004 0.468736
vt 0.953127 0.382801
vt 0.968751 0.445299
vt 0.984376 0.382801
vt 0.953127 0.382801
vt 0.875004 0.468736
vt 0.640636 0.382801
vt 0.640636 0.468736
vt 0.578138 0.453111
vt 0.546889 0.398426
vt 0.640636 0.492203
vt 0.875004 0.492203
vt 0.953127 0.507828
vt 0.984376 0.531264
vt 0.953127 0.554701
vt 0.640636 0.554701
vt 0.640636 0.507828
vt 0.406238 0.554701
vt 0.374989 0.515640
vt 0.265617 0.554701
vt 0.406238 0.531264
vt 0.437487 0.515640
vt 0.546889 0.554701
vt 0.437487 0.515640
vt 0.406238 0.531264
vt 0.374989 0.515640
vt 0.359364 0.382801
vt 0.499985 0.382801
vt 0.499985 0.382801
vt 0.359364 0.382801
vt 0.609387 0.679697
vt 0.609387 0.570326
vt 0.750008 0.679697
vt 0.421862 0.570326
vt 0.421862 0.679697
vt 0.265617 0.570326
vt 0.265617 0.656261
vt 0.421862 0.679697
vt 0.421862 0.570326
vt 0.609387 0.679697
vt 0.609387 0.570326
vt 0.750008 0.570326
vt 0.218743 0.492203
vt 0.234368 0.617199
vt 0.015625 0.453111
vt 0.015625 0.679697
vt 0.234368 0.617199
vt 0.218743 0.492203
vt 0.468736 0.960939
vt 0.468736 0.859380
vt 0.546889 0.843755
vt 0.796881 0.929690
vt 0.796881 0.835943
vt 0.468736 0.929690
vt 0.468736 0.835943
vt 0.796881 0.929690
vt 0.796881 0.992188
vt 0.468736 0.992188
vt 0.796881 0.992188
vt 0.546889 0.843755
vt 0.796881 0.929690
vt 0.796881 0.835943
vt 0.468736 0.929690
vt 0.468736 0.835943
vt 0.468736 0.992188
vt 0.796881 0.992188
vt 0.421862 0.890629
vt 0.390613 0.757820
vt 0.359364 0.890629
vt 0.390613 0.992188
vt 0.234368 0.953127
vt 0.171870 0.828130
vt 0.390613 0.695322
vt 0.171870 0.828130
vt 0.359364 0.890629
vt 0.234368 0.953127
vt 0.796881 0.773445
vt 0.546889 0.781257
vt 0.468736 0.773445
vt 0.796881 0.695322
vt 0.468736 0.695322
vt 0.468736 0.773445
vt 0.546889 0.781257
vt 0.796881 0.773445
vt 0.796881 0.695322
vt 0.468736 0.773445
vt 0.468736 0.695322
vt 0.796881 0.773445
vt 0.796881 0.695322
vt 0.468736 0.695322
vt 0.796881 0.835943
vn -0.0768 0.3591 0.9301
vn 0.4263 0.7304 0.5337
vn -0.1478 0.8104 0.5669
vn 0.7418 0.4898 0.4581
vn 0.8549 0.5069 -0.1101
vn 0.9253 0.3551 -0.1330
vn 0.2647 0.4877 -0.8319
vn 0.2413 0.4741 -0.8467
vn -0.3282 0.3741 -0.8673
vn -0.3334 0.3964 -0.8554
vn -0.8689 0.4864 0.0916
vn -0.9616 0.2324 0.1459
vn -0.0916 0.9953 -0.0322
vn 0.2371 0.9714 0.0082
vn -0.0817 -0.9966 0.0117
vn -0.0818 -0.9966 0.0117
vn -0.2375 -0.9708 0.0341
vn 0.0000 -1.0000 0.0000
vn 0.0768 0.3591 0.9301
vn 0.1478 0.8104 0.5669
vn -0.4263 0.7304 0.5337
vn -0.7418 0.4898 0.4581
vn -0.8549 0.5069 -0.1101
vn -0.9253 0.3551 -0.1330
vn -0.2647 0.4877 -0.8319
vn -0.2413 0.4741 -0.8467
vn 0.3282 0.3741 -0.8673
vn 0.3334 0.3964 -0.8554
vn 0.8689 0.4864 0.0916
vn 0.9616 0.2324 0.1459
vn 0.0916 0.9953 -0.0322
vn -0.2371 0.9714 0.0082
vn 0.0817 -0.9966 0.0117
vn 0.2375 -0.9708 0.0341
vn 0.0818 -0.9966 0.0117
vn 0.0000 -0.9961 -0.0884
vn 0.4061 -0.8216 0.4000
vn 0.0000 -0.8133 0.5818
vn 0.1211 -0.9644 -0.2351
vn 0.4509 -0.7175 -0.5310
vn 0.0000 -0.6564 -0.7544
vn -0.4509 -0.7175 -0.5310
vn -0.1211 -0.9644 -0.2351
vn -0.4061 -0.8216 0.4000
vn -0.5301 -0.8191 0.2189
vn -0.4877 -0.6812 -0.5460
vn 0.4877 -0.6812 -0.5460
vn 0.5301 -0.8191 0.2189
vn 0.7763 -0.5798 -0.2473
vn 0.8040 -0.5548 -0.2138
vn 0.0000 -0.9870 -0.1606
vn 0.8577 0.4162 -0.3016
vn 0.7970 0.4892 -0.3543
vn 0.0000 0.9597 -0.2808
vn 0.0000 0.9464 -0.3230
vn -0.7970 0.4892 -0.3543
vn -0.8577 0.4162 -0.3016
vn -0.7763 -0.5798 -0.2473
vn -0.8040 -0.5548 -0.2138
vn 0.0000 -0.9901 -0.1403
vn -0.0138 0.0090 0.9998
vn -0.0016 0.0005 1.0000
vn 0.0000 0.0029 1.0000
vn 0.0000 -0.0022 1.0000
vn 0.0016 0.0005 1.0000
vn 0.0138 0.0090 0.9998
vn 0.0000 0.5137 0.8579
vn 0.0000 0.4278 0.9038
vn 0.5543 0.2282 0.8003
vn 0.8509 0.4332 0.2973
vn 0.9533 -0.0747 0.2926
vn 0.7139 0.3585 -0.6015
vn 0.7767 -0.1194 -0.6185
vn 0.0000 0.3449 -0.9386
vn 0.0000 0.5538 -0.8326
vn 0.6717 0.5422 -0.5048
vn 0.7982 0.5647 0.2094
vn -0.5543 0.2282 0.8003
vn -0.8509 0.4332 0.2973
vn -0.9533 -0.0747 0.2926
vn -0.7139 0.3585 -0.6015
vn -0.7767 -0.1194 -0.6185
vn -0.6717 0.5422 -0.5048
vn -0.7982 0.5647 0.2094
vn 0.0000 1.0000 0.0059
vn 0.0000 0.6905 0.7233
vn 0.2710 0.9625 0.0097
vn 0.0000 0.7757 -0.6310
vn 0.4956 0.7520 -0.4345
vn 0.5763 0.7559 0.3106
vn 0.0000 0.6414 0.7672
vn -0.5763 0.7559 0.3106
vn -0.5503 0.8348 0.0130
vn -0.4956 0.7520 -0.4345
vn 0.6901 -0.6717 0.2692
vn 0.4949 -0.5142 0.7004
vn 0.6211 -0.6206 -0.4785
vn 0.4007 -0.8820 0.2479
vn 0.0000 -0.8091 0.5876
vn 0.0000 -0.8184 0.5746
vn -0.4949 -0.5142 0.7004
vn -0.6901 -0.6717 0.2692
vn -0.4007 -0.8820 0.2479
vn -0.6211 -0.6206 -0.4785
vn -0.4623 -0.8315 -0.3080
vn 0.0000 -0.6913 -0.7226
vn 0.0000 -0.9162 -0.4006
vn 0.4623 -0.8315 -0.3080
vn 0.0000 -0.1452 -0.9894
usemtl material1
s 1
f 54/54/50 55/55/51 56/56/52
f 57/57/53 55/55/51 54/54/50
f 55/55/51 57/57/53 58/58/54
f 59/59/55 58/58/54 57/57/53
f 60/60/56 61/61/57 58/58/54
f 61/61/57 60/60/56 62/62/58
f 61/61/57 62/62/58 63/63/59
f 63/63/59 62/62/58 64/64/60
f 62/62/58 65/65/61 64/64/60
f 65/65/61 54/54/50 64/64/60
f 54/54/50 56/56/52 64/64/60
f 56/56/52 66/66/62 64/64/60
f 67/67/63 66/66/62 56/56/52
f 56/56/52 55/55/51 67/67/63
f 68/68/64 69/69/65 70/70/66
f 71/71/67 69/69/65 68/68/64
f 71/71/67 68/68/64 72/72/67
f 73/73/68 74/74/69 75/75/70
f 76/76/71 73/73/68 75/75/70
f 75/75/70 77/77/72 76/76/71
f 78/78/73 76/76/71 77/77/72
f 79/79/74 77/77/72 80/80/75
f 80/80/75 81/81/76 79/79/74
f 80/80/75 82/82/77 81/81/76
f 82/82/77 83/83/78 81/81/76
f 81/81/76 83/83/78 84/84/79
f 84/84/79 83/83/78 73/73/68
f 73/73/68 83/83/78 74/74/69
f 74/74/69 83/83/78 85/85/80
f 86/86/81 74/74/69 85/85/80
f 74/74/69 86/86/81 75/75/70
f 87/87/82 88/88/83 89/89/84
f 90/90/67 87/87/82 89/89/84
f 90/90/67 91/91/67 87/87/82
f 92/92/85 93/93/86 94/94/87
f 95/95/88 93/93/86 92/92/85
f 95/95/88 92/92/85 96/96/89
f 92/92/85 97/97/90 96/96/89
f 92/92/85 98/98/91 97/97/90
f 99/99/92 98/98/91 92/92/85
f 99/99/92 92/92/85 100/100/93
f 92/92/85 94/94/87 100/100/93
f 94/94/87 101/101/94 100/100/93
f 98/98/91 100/100/93 101/101/94
f 102/102/95 98/98/91 101/101/94
f 102/102/95 97/97/90 98/98/91
f 103/103/96 96/96/89 97/97/90
f 103/103/96 104/104/97 96/96/89
f 96/96/89 104/104/97 93/93/86
f 94/94/87 93/93/86 104/104/97
f 105/105/98 106/106/99 107/107/100
f 108/108/101 106/106/99 105/105/98
f 105/105/98 109/109/102 108/108/101
f 110/110/103 108/108/101 109/109/102
f 109/109/102 111/111/104 110/110/103
f 112/112/105 110/110/103 111/111/104
f 110/110/103 112/112/105 113/113/106
f 114/114/107 113/113/106 112/112/105
f 113/113/106 114/114/107 115/115/108
f 114/114/107 107/107/100 115/115/108
f 107/107/100 116/116/109 115/115/108
f 107/107/100 106/106/99 116/116/109
f 117/117/110 118/118/111 119/119/112
f 119/119/112 118/118/111 120/120/113
f 119/119/112 120/120/113 121/121/114
f 122/122/115 119/119/112 121/121/114
f 123/123/116 124/124/117 125/125/118
f 125/125/118 126/126/119 123/123/116
f 126/126/119 125/125/118 127/127/120
f 128/128/121 126/126/119 127/127/120
f 129/129/122 128/128/121 127/127/120
f 128/128/121 129/129/122 130/130/123
f 128/128/121 130/130/123 131/131/124
f 128/128/121 131/131/124 132/132/125
f 126/126/119 128/128/121 132/132/125
f 126/126/119 132/132/125 133/133/126
f 123/123/116 126/126/119 133/133/126
f 123/123/116 134/134/127 124/124/117
f 134/134/127 123/123/116 135/135/128
f 135/135/128 136/136/129 134/134/127
f 137/137/130 136/136/129 135/135/128
f 138/138/131 136/136/129 137/137/130
f 137/137/130 130/130/123 138/138/131
f 137/137/130 131/131/124 130/130/123
f 137/137/130 139/139/132 131/131/124
f 135/135/128 139/139/132 137/137/130
f 135/135/128 140/140/133 139/139/132
f 123/123/116 140/140/133 135/135/128
f 141/141/134 142/142/135 143/143/136
f 141/141/134 143/143/136 144/144/137
f 143/143/136 145/145/138 144/144/137
f 146/146/139 145/145/138 143/143/136
f 143/143/136 142/142/135 146/146/139
f 146/146/139 142/142/135 147/147/140
f 148/148/141 147/147/140 142/142/135
f 149/149/142 148/148/141 142/142/135
f 148/148/141 149/149/142 150/150/143
f 150/150/143 149/149/142 144/144/137
f 151/151/144 127/127/120 152/152/145
f 129/129/122 127/127/120 151/151/144
f 151/151/144 153/153/146 129/129/122
f 154/154/147 153/153/146 151/151/144
f 154/154/147 151/151/144 155/155/148
f 155/155/148 151/151/144 152/152/145
f 152/152/145 156/156/149 155/155/148
f 157/157/150 155/155/148 156/156/149
f 155/155/148 157/157/150 158/158/151
f 159/159/152 155/155/148 158/158/151
f 159/159/152 158/158/151 160/160/153
f 161/161/154 159/159/152 160/160/153
f 161/161/154 160/160/153 162/162/155
f 161/161/154 162/162/155 163/163/156
f 164/164/157 163/163/156 162/162/155
f 164/164/157 162/162/155 153/153/146
f 164/164/157 153/153/146 154/154/147
f 129/129/122 153/153/146 165/165/158
f 130/130/123 129/129/122 165/165/158
f 130/130/123 165/165/158 138/138/131
f 138/138/131 165/165/158 160/160/153
f 158/158/151 138/138/131 160/160/153
f 138/138/131 158/158/151 136/136/129
f 158/158/151 157/157/150 136/136/129
f 157/157/150 134/134/127 136/136/129
f 152/152/145 127/127/120 125/125/118
f 165/165/158 153/153/146 162/162/155
f 165/165/158 162/162/155 160/160/153
