# Blender 5.1.1
# www.blender.org
mtllib estilingue.mtl
o estilingue
v -60.131683 64.343185 41.542381
v -59.243603 65.408707 41.527115
v -59.546417 66.069046 40.159485
v -58.048676 64.425049 42.004181
v -57.696068 65.778252 41.773262
v -58.444969 66.600281 40.903465
v -56.917320 63.321117 40.108414
v -57.696068 65.778252 41.773262
v -58.048676 64.425049 42.004181
v -60.131683 64.343185 41.542381
v -58.579708 63.010590 39.480579
v -59.546417 66.069046 40.159485
v -58.407917 64.807709 38.419682
v -58.444969 66.600281 40.903465
v -57.064522 65.241203 39.161976
v -48.578575 52.790119 41.542278
v -47.513103 53.678322 41.527000
v -48.496716 54.873188 42.004135
v -46.853317 53.376068 40.159355
v -46.321815 54.477245 40.903381
v -47.143517 55.225815 41.773186
v -49.604099 56.007961 40.108368
v -48.496716 54.873188 42.004135
v -47.143517 55.225815 41.773186
v -48.578575 52.790119 41.542278
v -49.914833 54.345821 39.480457
v -48.115604 54.515495 38.419582
v -46.853317 53.376068 40.159355
v -46.321815 54.477245 40.903381
v -47.684166 55.860962 39.161942
v -53.923805 59.012836 22.951668
v -54.099350 60.592621 22.951666
v -53.221672 59.714966 22.124187
v -52.329369 58.822681 22.951649
v -52.519543 60.417091 22.951656
v -52.519440 60.417091 33.617886
v -54.025520 60.518871 32.446888
v -53.923740 59.012794 33.295044
v -58.556973 63.203079 39.556736
v -58.398136 64.797928 38.653786
v -57.252754 65.181351 39.262478
v -57.081963 63.485764 40.108418
v -53.523262 60.009338 34.421169
v -52.926266 59.412338 34.421165
v -49.488937 55.892818 40.108372
v -52.404339 58.897694 32.446869
v -47.743385 55.673748 39.262436
v -49.730972 54.358814 39.556656
v -48.138939 54.538830 38.653698
v -56.917320 63.321117 40.108414
v -58.407917 64.807709 38.419682
v -57.064522 65.241203 39.161976
v -58.579708 63.010590 39.480579
v -47.684166 55.860962 39.161942
v -48.115604 54.515495 38.419582
v -49.604099 56.007961 40.108368
v -49.914833 54.345821 39.480457
vn -0.4732 0.4056 0.7820
vn -0.4554 0.4740 0.7536
vn -0.6433 0.6239 0.4437
vn -0.2098 0.2085 0.9553
vn -0.2368 0.4027 0.8842
vn -0.4473 0.6313 0.6335
vn 0.6183 -0.5423 0.5688
vn 0.9045 0.3313 0.2687
vn 0.4520 -0.6268 0.6347
vn -0.6889 -0.7214 -0.0708
vn -0.6321 -0.7725 0.0607
vn -0.5498 0.4361 -0.7124
vn -0.5932 0.4032 -0.6968
vn 0.4175 0.8513 -0.3177
vn 0.6670 0.7054 -0.2399
vn 0.4058 -0.4733 0.7818
vn 0.4741 -0.4556 0.7534
vn 0.2085 -0.2098 0.9553
vn 0.6241 -0.6434 0.4433
vn 0.6315 -0.4473 0.6333
vn 0.4029 -0.2369 0.8841
vn -0.5417 0.6177 0.5700
vn -0.6261 0.4513 0.6359
vn 0.3318 0.9041 0.2692
vn -0.7165 -0.6964 -0.0402
vn -0.7921 -0.6079 0.0546
vn 0.4041 -0.5644 -0.7198
vn 0.4648 -0.5476 -0.6958
vn 0.8512 0.4176 -0.3180
vn 0.7048 0.6680 -0.2390
vn -0.6593 -0.6544 -0.3704
vn -0.6499 0.6499 -0.3941
vn -0.0022 0.0022 -1.0000
vn 0.6493 -0.6493 -0.3961
vn 0.6543 0.6593 -0.3704
vn 0.7029 0.7060 0.0870
vn -0.6624 0.6805 -0.3133
vn -0.7091 -0.7049 0.0164
vn -0.6849 -0.7287 0.0039
vn -0.5541 0.4498 -0.7005
vn 0.5699 0.8120 -0.1262
vn 0.5827 -0.3979 0.7086
vn 0.3265 -0.4817 0.8132
vn -0.4844 0.3293 0.8105
vn -0.4018 0.5804 0.7083
vn 0.6800 -0.6615 -0.3162
vn 0.8168 0.5607 -0.1358
vn -0.7180 -0.6960 -0.0108
vn 0.4514 -0.5542 -0.6994
vn 0.4514 -0.4334 -0.7800
vn 0.4727 -0.4113 -0.7793
vn 0.5365 -0.3397 -0.7725
vn 0.3863 -0.4960 -0.7776
vn -0.3400 0.5356 -0.7730
vn -0.4112 0.4722 -0.7797
vn -0.4331 0.4511 -0.7804
vn -0.4952 0.3865 -0.7781
vt 0.187500 0.437500
vt 0.187500 0.343750
vt 0.031250 0.296890
vt 0.343750 0.296890
vt 0.281250 0.218750
vt 0.093750 0.218750
vt 0.031250 0.015640
vt 0.093750 0.171890
vt 0.031250 0.171890
vt 0.156250 0.171890
vt 0.156250 0.015640
vt 0.312500 0.171890
vt 0.312500 0.015640
vt 0.218750 0.171890
vt 0.468750 0.046890
vt 0.968750 0.062500
vt 0.468750 0.015640
vt 0.468750 0.437500
vt 0.968750 0.406250
vt 0.843750 0.859390
vt 0.968750 0.859390
vt 0.531250 0.859390
vt 0.468750 0.531250
vt 0.531250 0.531250
vt 0.281250 0.687500
s 1
usemtl material23_001
f 1/1/1 2/2/2 3/3/3
f 1/1/1 4/4/4 2/2/2
f 2/2/2 4/4/4 5/5/5
f 6/6/6 2/2/2 5/5/5
f 3/3/3 2/2/2 6/6/6
f 7/7/7 8/8/8 9/9/9
f 7/7/7 9/9/9 10/10/10
f 11/11/11 7/7/7 10/10/10
f 11/11/11 10/10/10 12/12/12
f 13/13/13 11/11/11 12/12/12
f 14/14/14 13/13/13 12/12/12
f 14/14/14 15/11/15 13/13/13
f 14/14/14 8/8/8 15/11/15
f 15/11/15 8/8/8 7/7/7
f 16/1/16 17/2/17 18/4/18
f 19/3/19 17/2/17 16/1/16
f 19/3/19 20/6/20 17/2/17
f 21/5/21 17/2/17 20/6/20
f 18/4/18 17/2/17 21/5/21
f 22/7/22 23/9/23 24/8/24
f 25/14/25 23/9/23 22/7/22
f 26/11/26 25/14/25 22/7/22
f 26/11/26 27/13/27 25/14/25
f 27/13/27 28/12/28 25/14/25
f 27/13/27 29/14/29 28/12/28
f 27/13/27 30/11/30 29/14/29
f 30/11/30 24/8/24 29/14/29
f 22/7/22 24/8/24 30/11/30
f 31/15/31 32/16/32 33/17/33
f 34/16/34 31/15/31 33/17/33
f 34/16/34 33/17/33 35/15/35
f 35/15/35 36/18/36 34/16/34
f 32/16/32 36/18/36 35/15/35
f 32/16/32 37/19/37 36/18/36
f 37/19/37 32/16/32 38/18/38
f 37/19/37 38/18/38 39/20/39
f 37/19/37 39/20/39 40/21/40
f 37/19/37 40/21/40 41/20/41
f 37/19/37 41/20/41 36/18/36
f 41/20/41 42/22/42 36/18/36
f 36/18/36 42/22/42 43/23/43
f 36/18/36 43/23/43 44/24/44
f 44/24/44 45/22/45 36/18/36
f 38/18/38 45/22/45 44/24/44
f 44/24/44 43/23/43 38/18/38
f 38/18/38 43/23/43 42/22/42
f 38/18/38 42/22/42 39/20/39
f 32/16/32 31/15/31 38/18/38
f 34/16/34 38/18/38 31/15/31
f 46/19/46 38/18/38 34/16/34
f 34/16/34 36/18/36 46/19/46
f 36/18/36 47/20/47 46/19/46
f 36/18/36 45/22/45 47/20/47
f 38/18/38 48/20/48 45/22/45
f 46/19/46 48/20/48 38/18/38
f 46/19/46 49/21/49 48/20/48
f 46/19/46 47/20/47 49/21/49
f 33/17/33 32/16/32 35/15/35
f 50/25/50 51/25/51 52/25/52
f 53/25/53 51/25/51 50/25/50
f 54/25/54 55/25/55 56/25/56
f 56/25/56 55/25/55 57/25/57
