mtllib dnk_ball_model.mtl
o nodes_2__meshes[0]
v -612.679993 -14.631680 306.780792
v -656.692017 -461.436035 168.578003
v -450.916016 -332.635590 489.396027
v -241.312790 326.584381 441.436035
v -4.738600 -53.361599 684.512024
v 446.632019 229.163193 494.624023
v 231.681595 -429.088013 441.436035
v -237.517593 -614.004028 306.780792
v 327.962402 -584.896057 0.000000
v -173.200394 -718.744019 -3.520940
v -559.480103 -553.828003 0.000000
v -699.252014 -330.519592 0.000000
v -762.412109 -527.608032 0.000000
v -678.784058 88.991608 -3.520940
v -339.380402 481.276031 0.000000
v -612.679993 -14.631680 -313.923187
v -656.692017 -461.436035 -168.578003
v -450.916016 -332.635590 -489.396027
v -241.312790 326.584381 -441.384033
v -4.738600 -53.361599 -684.512024
v 446.632019 229.163193 -494.624023
v 234.938004 490.104034 -328.298004
v 234.938004 490.104034 328.149597
v 165.666794 601.908020 0.000000
v 550.788025 429.764008 0.000000
v 644.524048 353.026794 230.265198
v 761.696106 426.368011 171.931198
v 761.696106 426.368011 -171.931198
v 644.524048 353.026794 -230.265198
v 586.888000 -72.180801 -328.298004
v 670.640015 238.284393 0.000000
v 586.888000 -72.180801 328.149597
v 657.176025 -183.346008 0.000000
v -237.517593 -614.004028 -313.923187
v 231.681595 -429.088013 -441.384033
vt 0.531250 0.625000
vt 0.125000 0.750000
vt 0.437500 0.250000
vt 0.968750 0.500000
vt 0.968750 0.031250
vt 0.437500 0.250000
vt 0.968750 0.500000
vt 0.531250 0.625000
vt 0.968750 0.968750
vt 0.531250 0.968750
vt 0.250000 0.968750
vt 0.250000 0.968750
vt 0.031250 0.968750
vt 0.531250 0.968750
vt 0.968750 0.968750
vt 0.531250 0.625000
vt 0.125000 0.750000
vt 0.437500 0.250000
vt 0.968750 0.500000
vt 0.968750 0.031250
vt 0.437500 0.250000
vt 0.531250 0.625000
vt 0.531250 0.625000
vt 0.531250 0.968750
vt 0.250000 0.968750
vt 0.125000 0.750000
vt 0.031250 0.781250
vt 0.031250 0.781250
vt 0.125000 0.750000
vt 0.531250 0.625000
vt 0.250000 0.968750
vt 0.531250 0.625000
vt 0.531250 0.968750
vt 0.531250 0.625000
vt 0.968750 0.500000
vn -0.8025 0.2588 0.5375
vn -0.7383 -0.4670 0.4866
vn -0.4817 -0.3036 0.8220
vn -0.3884 0.6268 0.6754
vn -0.0043 -0.0045 1.0000
vn 0.4600 0.2857 0.8407
vn 0.3947 -0.6243 0.6741
vn -0.1166 -0.8361 0.5360
vn 0.5414 -0.8407 0.0008
vn -0.0302 -0.9995 -0.0013
vn -0.3254 -0.9456 0.0013
vn -0.9937 0.1123 0.0013
vn -0.8448 -0.5351 0.0000
vn -0.9122 0.4096 -0.0013
vn -0.5196 0.8544 0.0008
vn -0.7982 0.2566 -0.5449
vn -0.7394 -0.4677 -0.4842
vn -0.4799 -0.3024 -0.8236
vn -0.3862 0.6277 -0.6759
vn -0.0043 -0.0045 -1.0000
vn 0.4599 0.2857 -0.8407
vn 0.1104 0.8353 -0.5386
vn 0.1104 0.8354 0.5384
vn 0.0505 0.9987 0.0001
vn 0.1875 0.9822 0.0000
vn 0.6978 0.4310 0.5720
vn 0.6893 0.4258 0.5861
vn 0.6893 0.4258 -0.5861
vn 0.6979 0.4310 -0.5720
vn 0.8000 -0.2676 -0.5369
vn 0.9632 -0.2686 0.0000
vn 0.8001 -0.2676 0.5368
vn 0.9203 -0.3910 0.0001
vn -0.1168 -0.8312 -0.5435
vn 0.3965 -0.6227 -0.6745
usemtl material0
s 1
f 1/1/1 2/2/2 3/3/3
f 4/4/4 1/1/1 3/3/3
f 5/5/5 4/4/4 3/3/3
f 5/5/5 6/6/6 4/4/4
f 7/7/7 6/6/6 5/5/5
f 5/5/5 3/3/3 7/7/7
f 7/7/7 3/3/3 8/8/8
f 8/8/8 9/9/9 7/7/7
f 10/10/10 9/9/9 8/8/8
f 8/8/8 11/11/11 10/10/10
f 8/8/8 2/2/2 11/11/11
f 8/8/8 3/3/3 2/2/2
f 2/2/2 12/12/12 13/13/13
f 1/1/1 12/12/12 2/2/2
f 1/1/1 14/14/14 12/12/12
f 14/14/14 1/1/1 15/15/15
f 14/14/14 15/15/15 16/16/16
f 16/16/16 12/12/12 14/14/14
f 16/16/16 17/17/17 12/12/12
f 16/16/16 18/18/18 17/17/17
f 18/18/18 16/16/16 19/19/19
f 20/20/20 18/18/18 19/19/19
f 21/21/21 20/20/20 19/19/19
f 22/22/22 21/21/21 19/19/19
f 19/19/19 15/15/15 22/22/22
f 15/15/15 19/19/19 16/16/16
f 1/1/1 4/4/4 15/15/15
f 15/15/15 4/4/4 23/23/23
f 24/24/24 15/15/15 23/23/23
f 23/23/23 25/25/25 24/24/24
f 25/25/25 23/23/23 26/26/26
f 25/25/25 26/26/26 27/27/27
f 28/28/28 25/25/25 27/27/27
f 29/29/29 25/25/25 28/28/28
f 29/29/29 22/22/22 25/25/25
f 29/29/29 21/21/21 22/22/22
f 29/29/29 30/30/30 21/21/21
f 29/29/29 31/31/31 30/30/30
f 29/29/29 28/28/28 31/31/31
f 28/28/28 27/27/27 31/31/31
f 31/31/31 27/27/27 26/26/26
f 31/31/31 26/26/26 32/32/32
f 32/32/32 33/33/33 31/31/31
f 32/32/32 9/9/9 33/33/33
f 7/7/7 9/9/9 32/32/32
f 32/32/32 6/6/6 7/7/7
f 32/32/32 26/26/26 6/6/6
f 23/23/23 6/6/6 26/26/26
f 6/6/6 23/23/23 4/4/4
f 15/15/15 24/24/24 22/22/22
f 22/22/22 24/24/24 25/25/25
f 17/17/17 13/13/13 12/12/12
f 17/17/17 11/11/11 13/13/13
f 34/34/34 11/11/11 17/17/17
f 34/34/34 10/10/10 11/11/11
f 10/10/10 34/34/34 9/9/9
f 9/9/9 34/34/34 35/35/35
f 30/30/30 9/9/9 35/35/35
f 33/33/33 9/9/9 30/30/30
f 30/30/30 31/31/31 33/33/33
f 35/35/35 21/21/21 30/30/30
f 20/20/20 21/21/21 35/35/35
f 20/20/20 35/35/35 18/18/18
f 18/18/18 35/35/35 34/34/34
f 34/34/34 17/17/17 18/18/18
f 2/2/2 13/13/13 11/11/11
