# Blender v3.6.3 OBJ File: ''
# www.blender.org
mtllib Dekubaba.mtl
o Dekubaba
v -1.066209 8.118685 -0.190638
v -0.684789 7.688947 0.844192
v -0.658641 7.078855 -0.120957
v 0.362062 5.691698 0.054562
v -0.138817 6.758462 -0.859501
v -0.358031 7.688947 -1.037583
v -0.418065 6.758462 0.748672
v 0.255739 5.519358 0.036416
v -0.347313 6.653591 -0.067405
v 0.471046 6.575859 -0.566987
v 0.489674 7.121751 -0.707663
v -0.256102 7.353871 -0.051612
v 0.492116 7.606182 -0.521695
v 0.030446 8.085901 -0.002149
v 0.290114 7.606182 0.641623
v 0.225124 7.121751 0.815866
v 0.255031 6.575859 0.677032
v -0.358031 7.688947 -1.037583
v -0.138817 6.758462 -0.859501
v -0.479393 5.932865 -0.427457
v -1.319261 7.005890 -0.235367
v -1.066209 8.118685 -0.190638
v 0.362062 5.691698 0.054562
v -0.418065 6.758462 0.748672
v -0.592870 5.932865 0.226046
v -0.684789 7.688947 0.844192
v 1.157838 6.205710 0.484912
v 1.031422 7.921072 0.170358
v 0.158742 7.714737 0.988974
v 0.087892 8.333765 0.007778
v 0.485499 7.714737 -0.892801
v 1.256618 6.205710 -0.083951
v 0.255739 5.519358 0.036416
v -0.070750 6.168413 -0.654328
v 0.338478 6.947517 -0.942551
v -0.284715 6.168413 0.577881
v 0.003517 6.947517 0.986465
v 0.269044 5.759638 0.038519
v 0.134499 5.951632 0.970364
v 0.279176 6.322640 0.857843
v 0.907521 6.062220 1.756118
v 0.867140 6.324538 -0.457639
v 0.554665 6.322640 -0.728675
v 1.449269 6.062220 -1.363773
v 0.456471 5.951632 -0.883854
v 0.664796 6.324538 0.707644
v -0.666478 5.464406 -0.123658
v -0.560008 5.321152 0.249475
v -0.951805 4.375057 -0.173947
v -0.440379 5.321152 -0.439460
v 0.840773 1.161284 -0.446851
v 0.677882 0.861449 -0.929587
v 0.062208 0.061888 0.002902
v 2.226027 0.961394 -1.246411
v -2.101610 0.961394 -1.246411
v -1.053172 0.861449 -0.064060
v -0.716356 1.161284 -0.446851
v -0.553465 0.861449 -0.929587
v 0.062208 1.161284 0.902408
v -0.437523 0.861449 1.002353
v 0.062208 0.961394 2.501529
v 1.177589 0.861449 -0.064060
v 0.561940 0.861449 1.002353
v -0.401537 0.312751 0.270755
v -0.481493 0.219802 0.146823
v -0.786327 0.140845 0.492633
v -0.110692 0.061889 0.102847
v -0.334569 0.219802 0.402682
v 0.289088 0.076880 -0.018088
v 0.465993 0.253783 -0.806653
v 0.053224 0.159835 0.021890
v -0.054735 0.080878 -0.186994
v -0.002855 4.061889 -0.089505
v -0.030199 4.061889 0.067965
v 0.062208 6.160735 0.002902
v 0.154616 4.061889 -0.062162
v 0.127272 4.061889 0.095309
v 0.039479 4.485656 -0.035517
v 0.095558 4.666556 0.050259
v -0.089427 4.961394 0.204690
v 0.029689 4.791488 -0.043302
v 0.154616 4.160735 -0.062162
v 0.127272 4.160735 0.095309
v -0.041722 3.011367 0.000064
v 0.028053 3.011367 0.100384
v 0.154616 2.061888 -0.062162
v 0.127272 2.061888 0.095309
v -0.076341 3.011367 0.164383
v -0.030199 4.160735 0.067965
v -0.030199 2.061888 0.067965
v -0.142210 3.011367 0.070819
v -0.002855 4.160735 -0.089505
v -0.002855 2.061888 -0.089505
v 0.387575 3.908873 -0.002445
v 0.073146 3.816924 0.085910
v 0.087795 3.770949 -0.039295
v 0.370143 3.960845 0.097940
v 0.121193 3.965842 -0.050730
v 0.387575 4.012816 -0.002445
v -0.041014 2.512641 -0.033270
v -0.305418 2.704535 -0.297165
v -0.065428 2.418692 0.031433
v -0.250658 2.711531 -0.332267
v -0.037279 2.261779 -0.025528
v -0.279124 2.636573 -0.372696
v 0.013991 0.061888 -0.005472
v 0.053834 0.061889 0.051126
v -0.030199 2.160735 0.067965
v -0.002855 2.160735 -0.089505
v 0.127272 2.160735 0.095309
v 0.110426 0.061888 0.011276
v 0.154616 2.160735 -0.062161
v 0.070583 0.061888 -0.045322
vt 0.955064 1.000000
vt -0.101561 0.111342
vt 1.021469 -0.233380
vt -0.041015 0.115248
vt 1.165021 -0.394510
vt 0.774402 0.704106
vt 0.984360 1.027343
vt 0.009765 0.028335
vt 0.874010 -0.003891
vt -0.101561 0.111342
vt 0.774402 0.704106
vt 0.009765 0.028335
vt 0.984360 1.027343
vt 0.888658 -0.518532
vt 0.163083 0.008804
vt 1.141584 0.382822
vt 1.105452 0.762699
vt 0.078124 0.449227
vt 0.907213 0.990234
vt 0.140623 0.958985
vt 0.907213 0.990234
vt 1.105452 0.762699
vt 1.141584 0.382822
vt 0.103514 0.001968
vt 1.789035 0.020523
vt 2.874956 0.458016
vt 0.949204 0.894533
vt 0.025390 0.000015
vt 1.820285 0.016617
vt 1.669896 -0.229473
vt -1.345683 -0.004867
vt 0.333979 0.630865
vt 2.874956 0.458016
vt 1.789035 0.020523
vt 0.103514 0.001968
vt 0.490227 0.933595
vt 1.820285 0.016617
vt 0.576163 0.152357
vt 1.240215 0.343760
vt -0.089842 0.816409
vt 0.763660 -0.026352
vt 1.644506 0.969727
vt 0.158201 0.990234
vt 0.333979 0.630865
vt -1.345683 -0.004867
vt 2.876909 0.953126
vt 0.138670 0.984375
vt 0.332026 -0.031234
vt 0.960923 0.992188
vt 0.130857 0.009781
vt 2.103483 0.029312
vt 2.103483 0.029312
vt 1.171857 1.582022
vt 0.749989 0.262707
vt 1.601538 0.355479
vt 1.359354 0.995117
vt -0.380854 0.992188
vt 0.572257 0.003921
vt 0.691396 0.915040
vt 2.359339 0.064467
vt 0.113280 0.000015
vt 0.332026 -0.031234
vt 2.876909 0.953126
vt 1.558570 0.947266
vt 1.228497 0.026382
vt 0.224606 0.001968
vt 1.312480 0.013687
vt -0.074218 0.028335
vt 0.845690 0.939454
vt 0.113280 0.000015
vt 0.691396 0.915040
vt 0.845690 0.939454
vt -0.074218 0.028335
vt 1.312480 0.013687
vt 0.224606 0.001968
vt 1.228497 0.026382
vt 1.558570 0.947266
vt 0.861315 0.728520
vt 1.134748 -0.408182
vt -0.124998 -0.112288
vt 0.214840 -0.076155
vt 1.023422 -0.094710
vt 0.861315 0.943360
vt 0.941392 0.876955
vt 1.009750 0.290050
vt 0.300777 0.292980
vt -0.343745 -0.592749
vt 0.984360 -0.561500
vt 1.097640 0.729496
vt -0.124998 -0.112288
vt 1.134748 -0.408182
vt 0.861315 0.943360
vt 1.023422 -0.094710
vt 0.214840 -0.076155
vt 0.300777 0.292980
vt 1.009750 0.290050
vt 0.300777 0.292980
vt 1.009750 0.290050
vt 1.097640 0.729496
vt 0.984360 -0.561500
vt -0.343745 -0.592749
vt 1.134748 -0.408182
vt -0.124998 -0.112288
vt 0.214840 -0.076155
vt 1.023422 -0.094710
vt 0.861315 0.943360
vt 1.097640 0.729496
vt 0.984360 -0.561500
vt -0.343745 -0.592749
vt -0.201169 0.796878
vt 1.230450 1.117186
vt -0.154295 -0.490212
vt 0.808581 1.244137
vt 1.195294 -0.023422
vt -0.027343 -0.016586
vt 0.794910 1.908189
vt 1.185529 -0.005844
vt -0.064452 -0.072249
vt -0.164060 -0.029281
vt 1.085921 1.054687
vt -0.175779 0.955079
vt -0.357416 -0.134748
vt 1.005844 0.071303
vt 0.865221 1.576163
vt -0.039062 0.849612
vt 1.165998 0.889650
vt 0.039062 -0.218731
vt 0.214840 -0.076155
vt 1.023422 -0.094710
vt 0.861315 0.943360
vt -0.082030 -0.063460
vt 0.933580 -0.033187
vt 0.662099 1.487297
vt 0.267574 -0.039047
vt 1.070296 0.961915
vt -0.136717 0.864260
vt 0.201169 1.031250
vt 1.142561 0.904298
vt -0.478508 -0.302714
vt 1.097640 0.729496
vt 0.984360 -0.561500
vt -0.343745 -0.592749
vt 0.861315 0.728520
vt 1.134748 -0.408182
vt -0.124998 -0.112288
vt 0.214840 -0.076155
vt 1.023422 -0.094710
vt 0.861315 0.943360
vt 0.861315 0.728520
vt 1.134748 -0.408182
vt -0.124998 -0.112288
vt 1.097640 0.729496
vt 0.984360 -0.561500
vt -0.343745 -0.592749
vt 0.201169 1.031250
vt 1.142561 0.904298
vt -0.478508 -0.302714
vt 0.919908 -0.041976
vt 0.894518 1.559562
vt -0.128904 -0.189435
vt 0.980454 -1.420861
vt 0.804675 -0.106428
vt 0.035156 -0.017563
vt 0.042968 0.007828
vt 0.699208 0.003921
vt 1.019516 5.035095
vt 0.499992 2.863253
vt 0.234371 -0.015610
vt 0.753895 0.035171
vt 1.710911 3.234341
vt 0.257809 0.035171
vt 0.679677 0.046890
vt 0.796863 2.187482
vt 0.144529 -0.042953
vt 0.628897 -0.011703
vt 1.230450 0.445321
vt 1.054671 0.050796
vt 0.632803 -0.593726
vt 1.226544 -0.230450
vt 2.035125 2.328105
vt 1.101546 2.363261
vt 1.613257 1.148435
vt 0.683583 1.183591
vt 1.195294 -0.031234
vt 0.261715 0.003921
vt 0.179685 2.347636
vt 0.371088 1.164060
vt 1.023422 1.187497
vt -0.472649 2.324198
vt 1.867159 0.031265
vt 1.218731 0.007828
vt 1.082015 2.937470
vt 0.499992 1.453118
vt 0.812488 1.445306
vt 0.773426 2.945283
vt 0.539054 -0.042953
vt 0.230465 -0.035141
vt 0.144529 -0.031234
vt 0.585929 -0.019516
vt 0.511711 1.054687
vt 0.953110 1.062499
vt 1.316386 2.148420
vt 0.878893 2.136701
vt 0.890611 1.000000
vt 0.644521 0.070327
vt 0.804675 0.007828
vt 0.687490 1.050781
vt 0.113280 0.281261
vt 0.488274 1.097655
vt 0.917955 -0.328105
vt 1.082015 0.367197
vt 0.816394 -0.570289
vt 1.062484 0.484383
vt 0.515617 -0.523414
vt 0.914049 0.523445
vt 0.113280 0.000015
vt 0.320308 -0.015610
vt 2.386682 3.667928
vt 1.910127 3.699178
vt 0.249996 0.027359
vt 1.499977 2.468728
vt 0.874987 2.464821
vt 0.519523 0.031265
vt 1.007797 2.988251
vt 0.054687 -0.042953
vt 1.468728 2.949189
vt 0.253902 -0.058578
vt 0.359370 2.769504
vt 0.332026 0.019546
vt 1.003891 2.773410
vt 0.609366 0.023452
vn 0.9156 0.3695 0.1587
vn 0.9316 0.3182 -0.1759
vn 0.8882 0.4328 0.1543
vn 0.7895 0.5983 0.1372
vn 0.8074 0.4610 0.3683
vn 0.8180 0.3176 0.4796
vn 0.8841 0.4613 -0.0746
vn -0.8671 -0.4748 -0.1507
vn -0.9653 -0.2006 -0.1670
vn -0.5210 -0.2601 -0.8130
vn -0.5878 0.0755 -0.8055
vn -0.9514 0.2601 -0.1646
vn -0.5772 0.2884 -0.7640
vn -0.9157 0.3692 -0.1588
vn -0.8003 0.2886 0.5255
vn -0.8243 0.0756 0.5611
vn -0.7637 -0.2605 0.5907
vn -0.6032 -0.0647 -0.7950
vn -0.2888 -0.3477 -0.8920
vn -0.3312 -0.7363 -0.5901
vn -0.9701 -0.1752 -0.1682
vn -0.9601 0.2250 -0.1663
vn 0.0393 -0.9992 0.0062
vn -0.5719 -0.3489 0.7424
vn -0.5102 -0.7368 0.4437
vn -0.8356 -0.0656 0.5454
vn 0.6965 -0.3997 0.5960
vn 0.7955 0.5901 0.1377
vn 0.4951 0.3465 0.7968
vn 0.3899 0.9183 0.0680
vn 0.7338 0.3470 -0.5840
vn 0.8562 -0.3998 -0.3273
vn 0.3672 -0.9279 0.0639
vn 0.3454 -0.5384 -0.7686
vn 0.5512 -0.2420 -0.7985
vn 0.0681 -0.5383 0.8400
vn 0.2517 -0.2420 0.9371
vn -0.6064 0.7881 -0.1052
vn -0.8846 0.4115 0.2194
vn -0.5631 0.8256 0.0354
vn -0.3382 0.8139 0.4725
vn -0.1322 0.9805 0.1455
vn -0.5183 0.8257 -0.2225
vn -0.1596 0.8140 -0.5585
vn -0.7587 0.4119 -0.5047
vn -0.0755 0.9805 -0.1815
vn -0.7165 0.6864 -0.1241
vn -0.6893 0.5885 0.4226
vn -0.9521 0.2570 -0.1654
vn -0.5067 0.5887 -0.6298
vn -0.3155 0.9313 0.1819
vn -0.5421 0.7835 -0.3037
vn 0.0000 1.0000 0.0001
vn 0.1074 0.9923 -0.0620
vn -0.1074 0.9923 -0.0620
vn 0.0082 0.7837 0.6211
vn 0.3155 0.9313 0.1819
vn 0.5421 0.7835 -0.3037
vn -0.0000 0.9314 -0.3640
vn -0.5337 0.7837 -0.3178
vn -0.0000 0.9923 0.1240
vn -0.0082 0.7837 0.6211
vn 0.5337 0.7837 -0.3178
vn 0.1112 0.9917 -0.0646
vn -0.1642 0.8371 -0.5219
vn -0.3129 0.9326 0.1800
vn 0.5187 0.8012 -0.2984
vn 0.3681 0.8377 0.4034
vn 0.3604 0.8896 0.2804
vn -0.0350 0.9948 0.0954
vn -0.0394 0.9949 0.0932
vn -0.4329 0.8942 -0.1143
vn -0.5749 0.0538 -0.8165
vn -0.8165 0.0538 0.5749
vn -0.0000 1.0000 0.0000
vn 0.8165 0.0538 -0.5749
vn 0.5749 0.0538 0.8165
vn 0.0475 -0.4399 0.8968
vn 0.3986 -0.2167 0.8912
vn 0.8093 0.2231 0.5434
vn 0.8607 0.5045 0.0677
vn 0.8179 -0.1695 -0.5499
vn 0.6350 -0.0575 0.7704
vn 0.1416 0.0431 -0.9890
vn 0.9702 0.0481 0.2374
vn 0.8093 0.1451 -0.5691
vn 0.6283 0.0090 0.7779
vn -0.2428 -0.0045 0.9701
vn -0.8098 0.1277 0.5727
vn -0.8065 -0.1536 0.5709
vn -0.9916 -0.0044 -0.1290
vn -0.5288 -0.0004 -0.8488
vn -0.5189 0.0029 -0.8548
vn 0.3648 -0.8150 0.4502
vn 0.1436 -0.4626 0.8749
vn 0.3534 -0.8640 0.3586
vn 0.0095 0.2219 0.9750
vn -0.3343 0.7392 0.5847
vn -0.2305 0.8799 0.4155
vn -0.2823 0.6190 0.7329
vn -0.6884 0.3969 0.6071
vn -0.8294 -0.0575 0.5557
vn 0.1798 0.8725 0.4543
vn -0.8823 -0.3261 0.3395
vn -0.8789 -0.4639 0.1114
vn -0.9839 -0.0515 -0.1709
vn -0.1709 -0.0515 0.9839
vn -0.8175 -0.0211 0.5756
vn -0.5756 -0.0211 -0.8175
vn 0.5756 -0.0211 0.8175
vn 0.9839 -0.0515 0.1709
vn 0.8175 -0.0211 -0.5756
vn 0.1709 -0.0515 -0.9839
usemtl 5227F7D5EAD89FCA(15)
s 1
f 1/1/1 2/2/2 3/3/3
f 3/4/3 4/5/4 5/6/5
f 5/7/5 6/8/6 3/9/3
f 3/3/3 6/10/6 1/1/1
f 7/11/7 4/5/4 3/4/3
f 3/9/3 2/12/2 7/13/7
f 8/14/8 9/15/9 10/16/10
f 9/15/9 11/17/11 10/16/10
f 9/15/9 12/18/12 11/17/11
f 12/18/12 13/19/13 11/17/11
f 12/18/12 14/20/14 13/19/13
f 15/21/15 14/20/14 12/18/12
f 16/22/16 15/21/15 12/18/12
f 16/22/16 12/18/12 9/15/9
f 17/23/17 9/15/9 8/14/8
f 17/23/17 16/22/16 9/15/9
usemtl 1F39B663F3503108(03)
f 18/24/18 19/25/19 20/26/20
f 21/27/21 22/28/22 18/29/18
f 23/30/23 24/31/24 25/32/25
f 25/33/25 24/34/24 26/35/26
f 26/35/26 21/36/21 25/33/25
f 26/37/26 22/28/22 21/27/21
f 20/38/20 25/39/25 21/40/21
f 23/41/23 25/42/25 20/43/20
f 20/44/20 19/45/19 23/30/23
f 20/26/20 21/36/21 18/24/18
f 27/46/27 28/47/28 29/48/29
f 28/49/28 30/50/30 29/51/29
f 31/52/31 30/50/30 28/49/28
f 28/53/28 27/54/27 32/55/32
f 32/56/32 27/57/27 33/58/33
f 32/59/32 33/60/33 34/61/34
f 31/62/31 28/47/28 32/63/32
f 32/64/32 35/65/35 31/66/31
f 34/67/34 35/68/35 32/69/32
f 36/70/36 33/60/33 27/71/27
f 27/72/27 37/73/37 36/74/36
f 29/75/29 37/76/37 27/77/27
usemtl 5CBB5ED8E3932BE0(12)
f 38/78/38 39/79/39 40/80/40
f 40/81/40 39/82/39 41/83/41
f 38/84/38 42/85/42 43/86/43
f 43/87/43 42/88/42 44/89/44
f 43/90/43 45/91/45 38/78/38
f 44/92/44 45/93/45 43/94/43
f 40/95/40 46/96/46 38/84/38
f 47/97/47 48/98/48 38/84/38
f 49/99/49 48/100/48 47/101/47
f 38/78/38 50/102/50 47/103/47
f 47/104/47 50/105/50 49/106/49
f 41/107/41 46/108/46 40/109/40
f 51/110/51 52/111/52 53/112/53
f 54/113/54 52/114/52 51/115/51
f 55/116/55 56/117/56 57/118/57
f 53/119/53 58/120/58 57/121/57
f 57/122/57 58/123/58 55/124/55
f 57/125/57 56/126/56 53/127/53
f 59/128/59 60/129/60 61/130/61
f 51/131/51 62/132/62 54/133/54
f 53/134/53 62/135/62 51/136/51
f 59/137/59 63/138/63 53/139/53
f 61/140/61 63/141/63 59/142/59
f 53/143/53 60/144/60 59/145/59
f 64/146/64 65/147/65 66/148/66
f 67/149/67 65/150/65 64/151/64
f 66/152/66 68/153/68 64/154/64
f 64/155/64 68/156/68 67/157/67
f 69/158/69 70/159/70 71/160/71
f 70/161/70 72/162/72 71/163/71
usemtl 76B589069058907A(00)
f 73/164/73 74/165/74 75/166/75
f 75/167/75 76/168/76 73/169/73
f 75/170/75 77/171/77 76/172/76
f 75/173/75 74/174/74 77/175/77
f 78/176/78 79/177/79 80/178/80
f 79/177/79 81/179/81 80/178/80
f 82/180/82 83/181/83 84/182/84
f 83/181/83 85/183/85 84/182/84
f 85/183/85 86/184/86 84/182/84
f 85/183/85 87/185/87 86/184/86
f 83/186/83 88/187/88 85/188/85
f 83/186/83 89/189/89 88/187/88
f 88/187/88 87/190/87 85/188/85
f 88/187/88 90/191/90 87/190/87
f 89/192/89 91/193/91 88/194/88
f 89/192/89 92/195/92 91/193/91
f 91/193/91 90/196/90 88/194/88
f 91/193/91 93/197/93 90/196/90
f 86/198/86 93/199/93 84/200/84
f 93/199/93 91/201/91 84/200/84
f 91/201/91 92/202/92 84/200/84
f 92/202/92 82/203/82 84/200/84
f 94/204/94 95/205/95 96/206/96
f 94/204/94 97/207/97 95/205/95
f 97/207/97 98/208/98 95/205/95
f 97/207/97 99/209/99 98/208/98
f 100/210/100 101/211/101 102/212/102
f 100/210/100 103/213/103 101/211/101
f 101/211/101 104/214/104 102/212/102
f 101/211/101 105/215/105 104/214/104
f 106/216/106 107/217/107 108/218/108
f 106/216/106 108/218/108 109/219/109
f 107/220/107 110/221/110 108/222/108
f 107/220/107 111/223/111 110/221/110
f 110/224/110 111/225/111 112/226/112
f 111/225/111 113/227/113 112/226/112
f 112/228/112 113/229/113 109/230/109
f 113/229/113 106/231/106 109/230/109
